<?xml version="1.0" encoding="utf-8"?>
<!-- Generator: Adobe Illustrator 26.0.1, SVG Export Plug-In . SVG Version: 6.00 Build 0)  -->
<svg version="1.1" id="Layer_1" xmlns="http://www.w3.org/2000/svg" xmlns:xlink="http://www.w3.org/1999/xlink" x="0px" y="0px"
	 viewBox="0 0 162.7 53.32" style="enable-background:new 0 0 162.7 53.32;" xml:space="preserve">
<style type="text/css">
	.st0{fill:#2F4EA0;}
</style>
<g>
	<g>
		<g>
			<path class="st0" d="M22.12,53.32c-0.57-0.3-14.27-7.56-16.63-15.97C3.83,31.47,4.31,21.8,4.33,21.39l0.04-0.87l4.85-0.61
				L9.15,22L6.4,22.37c-0.08,2.51-0.17,9.84,1.11,14.41c2.12,7.54,15.07,14.41,15.2,14.48L22.12,53.32z"/>
		</g>
		<g>
			<path class="st0" d="M36.86,36.78c-2.12,7.54-15.07,14.41-15.2,14.48l0.46,2.06c0.57-0.3,14.4-7.56,16.77-15.97
				c0.79-2.81,1.09-6.47,1.19-9.59h-2.11C37.87,30.74,37.58,34.2,36.86,36.78z"/>
		</g>
		<path class="st0" d="M10.87,19.73v-6.71c0,0,2.61-2.46,11.17-2.46c8.47,0,11.17,2.46,11.17,2.46v6.71c0,0-6.29-3.18-11.17,0.19
			C22.05,19.91,16.81,16.53,10.87,19.73z"/>
		<polygon class="st0" points="36.67,22.22 34.42,21.8 34.25,19.73 36.49,20.19 		"/>
		<path class="st0" d="M40.86,18.28c0,0.9-0.73,1.63-1.63,1.63c-0.9,0-1.63-0.73-1.63-1.63c0-0.9,0.73-1.63,1.63-1.63
			C40.13,16.64,40.86,17.38,40.86,18.28z"/>
		<polygon class="st0" points="38.28,11.45 38.49,18.88 37.6,26.32 40.86,26.32 39.93,18.78 40.08,10.93 		"/>
		<g>
			<path class="st0" d="M44.4,8.56L22.56,0.14c0,0-0.35-0.14-0.52-0.14c-0.15,0-0.46,0.14-0.46,0.14L0.17,8.65
				c0,0-0.17,0.06-0.17,0.34c0,0.28,0.17,0.4,0.17,0.4l9.13,3.77v-1.48c0,0,3.88-3.02,12.54-3.02c8.67,0,12.83,3.02,12.83,3.02v1.97
				L44.4,9.3c0,0,0.11-0.01,0.11-0.41C44.5,8.64,44.4,8.56,44.4,8.56z"/>
		</g>
		<rect x="18.67" y="21.52" class="st0" width="6.96" height="1.74"/>
		<g>
			<path class="st0" d="M25.66,24.68h-2.59h-0.35h-4.08c0,0,0.69,2.16-4.32,9.01c0,0,4.6,4.3,6.4,12.28
				c0.09,0.39,0.48,0.77,0.91,0.91V35.45C20.69,35.22,20,34.37,20,33.37c0-1.19,0.96-2.15,2.15-2.15c1.19,0,2.16,0.96,2.16,2.15
				c0,1.01-0.69,1.85-1.63,2.09v11.44c0.43-0.14,0.82-0.52,0.91-0.91c1.79-7.98,6.4-12.28,6.4-12.28
				C24.98,26.84,25.66,24.68,25.66,24.68z"/>
		</g>
	</g>
	<g>
		<g>
			<path class="st0" d="M55.82,12.84v3.87h4.55v1.76h-4.55v4.04h5.12v1.76h-7.28v-13.2h7.28v1.76H55.82z"/>
			<path class="st0" d="M63.53,16.21c0.44-0.81,1.03-1.44,1.78-1.89c0.75-0.45,1.59-0.67,2.51-0.67c0.68,0,1.36,0.15,2.02,0.45
				c0.66,0.3,1.19,0.69,1.58,1.19v-5.05h2.18v14.04h-2.18V22.7c-0.35,0.51-0.84,0.92-1.47,1.25c-0.63,0.33-1.34,0.49-2.15,0.49
				c-0.91,0-1.74-0.23-2.49-0.69c-0.75-0.46-1.35-1.11-1.78-1.94c-0.44-0.83-0.65-1.77-0.65-2.82S63.09,17.02,63.53,16.21z
				 M70.98,17.16c-0.3-0.53-0.69-0.94-1.17-1.21c-0.48-0.28-1-0.42-1.56-0.42c-0.56,0-1.08,0.14-1.56,0.41
				c-0.48,0.27-0.87,0.67-1.17,1.19c-0.3,0.52-0.45,1.15-0.45,1.87s0.15,1.35,0.45,1.9c0.3,0.54,0.69,0.96,1.18,1.24
				c0.49,0.28,1,0.43,1.55,0.43c0.56,0,1.07-0.14,1.56-0.42c0.48-0.28,0.87-0.69,1.17-1.22c0.3-0.54,0.45-1.17,0.45-1.89
				S71.28,17.69,70.98,17.16z"/>
			<path class="st0" d="M85.92,13.82v10.45h-2.16v-1.23c-0.34,0.43-0.79,0.77-1.34,1.02c-0.55,0.25-1.13,0.37-1.75,0.37
				c-0.82,0-1.56-0.17-2.21-0.51s-1.16-0.85-1.54-1.52c-0.37-0.67-0.56-1.48-0.56-2.43v-6.15h2.14v5.82c0,0.94,0.23,1.65,0.7,2.15
				c0.47,0.5,1.11,0.75,1.92,0.75c0.81,0,1.45-0.25,1.92-0.75c0.47-0.5,0.71-1.22,0.71-2.15v-5.82H85.92z"/>
			<path class="st0" d="M90.72,23.94c-0.71-0.31-1.26-0.75-1.67-1.32s-0.61-1.23-0.61-1.99h2.31c0.05,0.57,0.28,1.04,0.67,1.4
				s0.96,0.55,1.68,0.55c0.75,0,1.33-0.18,1.75-0.54c0.42-0.36,0.63-0.83,0.63-1.39c0-0.44-0.13-0.8-0.39-1.08
				c-0.26-0.28-0.58-0.49-0.97-0.65c-0.39-0.15-0.92-0.32-1.6-0.49c-0.86-0.23-1.56-0.46-2.1-0.69c-0.54-0.23-1-0.6-1.38-1.09
				c-0.38-0.49-0.57-1.15-0.57-1.97c0-0.76,0.19-1.42,0.57-1.99c0.38-0.57,0.91-1.01,1.59-1.31c0.68-0.3,1.47-0.46,2.37-0.46
				c1.28,0,2.32,0.32,3.14,0.96s1.27,1.51,1.36,2.63h-2.39c-0.04-0.48-0.27-0.89-0.68-1.23c-0.42-0.34-0.97-0.51-1.65-0.51
				c-0.62,0-1.12,0.16-1.52,0.47c-0.39,0.32-0.59,0.77-0.59,1.37c0,0.4,0.12,0.74,0.37,1c0.25,0.26,0.56,0.46,0.94,0.62
				c0.38,0.15,0.9,0.32,1.55,0.49c0.87,0.24,1.58,0.48,2.13,0.72c0.55,0.24,1.02,0.61,1.4,1.11c0.39,0.5,0.58,1.17,0.58,2
				c0,0.67-0.18,1.3-0.54,1.9s-0.89,1.07-1.57,1.43c-0.69,0.36-1.5,0.54-2.44,0.54C92.22,24.41,91.42,24.25,90.72,23.94z"/>
			<path class="st0" d="M109.68,13.82v10.45h-2.16v-1.23c-0.34,0.43-0.79,0.77-1.34,1.02c-0.55,0.25-1.13,0.37-1.75,0.37
				c-0.82,0-1.56-0.17-2.21-0.51s-1.16-0.85-1.54-1.52c-0.37-0.67-0.56-1.48-0.56-2.43v-6.15h2.14v5.82c0,0.94,0.23,1.65,0.7,2.15
				c0.47,0.5,1.11,0.75,1.92,0.75c0.81,0,1.45-0.25,1.92-0.75c0.47-0.5,0.71-1.22,0.71-2.15v-5.82H109.68z"/>
			<path class="st0" d="M116.19,14.14c0.63-0.33,1.35-0.49,2.14-0.49c0.91,0,1.74,0.22,2.49,0.67c0.75,0.45,1.34,1.08,1.77,1.89
				c0.43,0.81,0.65,1.74,0.65,2.79s-0.21,1.99-0.65,2.82c-0.43,0.83-1.02,1.47-1.77,1.94c-0.75,0.46-1.58,0.69-2.49,0.69
				c-0.8,0-1.5-0.16-2.12-0.48c-0.62-0.32-1.13-0.72-1.52-1.21v6.49h-2.16V13.82h2.16v1.54C115.06,14.88,115.56,14.47,116.19,14.14z
				 M120.6,17.13c-0.3-0.52-0.69-0.92-1.18-1.19c-0.49-0.27-1.01-0.41-1.56-0.41c-0.54,0-1.06,0.14-1.55,0.42
				c-0.49,0.28-0.88,0.68-1.18,1.21c-0.3,0.53-0.45,1.16-0.45,1.88s0.15,1.35,0.45,1.89c0.3,0.54,0.69,0.95,1.18,1.22
				c0.49,0.28,1,0.42,1.55,0.42c0.56,0,1.08-0.14,1.56-0.43c0.49-0.29,0.88-0.7,1.18-1.24c0.3-0.54,0.45-1.18,0.45-1.9
				S120.9,17.66,120.6,17.13z"/>
			<path class="st0" d="M129.05,14.14c0.63-0.33,1.35-0.49,2.14-0.49c0.91,0,1.74,0.22,2.49,0.67c0.75,0.45,1.34,1.08,1.77,1.89
				c0.43,0.81,0.65,1.74,0.65,2.79s-0.21,1.99-0.65,2.82c-0.43,0.83-1.02,1.47-1.77,1.94c-0.75,0.46-1.58,0.69-2.49,0.69
				c-0.8,0-1.5-0.16-2.12-0.48c-0.62-0.32-1.13-0.72-1.52-1.21v6.49h-2.16V13.82h2.16v1.54C127.92,14.88,128.42,14.47,129.05,14.14z
				 M133.46,17.13c-0.3-0.52-0.69-0.92-1.18-1.19c-0.49-0.27-1.01-0.41-1.56-0.41c-0.54,0-1.06,0.14-1.55,0.42
				c-0.49,0.28-0.88,0.68-1.18,1.21c-0.3,0.53-0.45,1.16-0.45,1.88s0.15,1.35,0.45,1.89c0.3,0.54,0.69,0.95,1.18,1.22
				c0.49,0.28,1,0.42,1.55,0.42c0.56,0,1.08-0.14,1.56-0.43c0.49-0.29,0.88-0.7,1.18-1.24c0.3-0.54,0.45-1.18,0.45-1.9
				S133.76,17.66,133.46,17.13z"/>
			<path class="st0" d="M140.11,23.77c-0.8-0.45-1.42-1.08-1.88-1.9s-0.68-1.76-0.68-2.84c0-1.06,0.23-2,0.7-2.83
				c0.47-0.82,1.11-1.45,1.92-1.9c0.81-0.44,1.71-0.66,2.71-0.66s1.9,0.22,2.71,0.66c0.81,0.44,1.45,1.07,1.92,1.9
				c0.47,0.82,0.7,1.76,0.7,2.83s-0.24,2-0.72,2.83s-1.14,1.46-1.96,1.91c-0.83,0.45-1.74,0.67-2.74,0.67
				C141.8,24.44,140.91,24.22,140.11,23.77z M144.35,22.17c0.49-0.27,0.88-0.66,1.19-1.2s0.46-1.18,0.46-1.93s-0.15-1.4-0.44-1.93
				c-0.29-0.52-0.68-0.92-1.16-1.18c-0.48-0.27-1-0.4-1.56-0.4s-1.07,0.13-1.55,0.4c-0.47,0.27-0.85,0.66-1.13,1.18
				c-0.28,0.53-0.42,1.17-0.42,1.93c0,1.13,0.29,2,0.86,2.61s1.3,0.92,2.17,0.92C143.34,22.57,143.86,22.43,144.35,22.17z"/>
			<path class="st0" d="M153.78,14.1c0.52-0.3,1.15-0.45,1.87-0.45v2.24h-0.55c-0.85,0-1.49,0.22-1.93,0.64
				c-0.44,0.43-0.65,1.18-0.65,2.24v5.5h-2.16V13.82h2.16v1.52C152.83,14.81,153.25,14.39,153.78,14.1z"/>
			<path class="st0" d="M160.16,15.59v5.79c0,0.39,0.09,0.67,0.28,0.84c0.18,0.17,0.5,0.26,0.94,0.26h1.33v1.8h-1.71
				c-0.97,0-1.72-0.23-2.24-0.68s-0.78-1.2-0.78-2.22v-5.79h-1.23v-1.76h1.23v-2.6h2.18v2.6h2.54v1.76H160.16z"/>
		</g>
		<g>
			<path class="st0" d="M64.18,29.73v13.18h-2.16v-5.77h-6.2v5.77h-2.16V29.73h2.16v5.65h6.2v-5.65H64.18z"/>
			<path class="st0" d="M76.49,32.46v10.45h-2.16v-1.23c-0.34,0.43-0.79,0.77-1.34,1.02c-0.55,0.25-1.13,0.37-1.75,0.37
				c-0.82,0-1.56-0.17-2.21-0.51s-1.16-0.85-1.54-1.52c-0.37-0.67-0.56-1.48-0.56-2.43v-6.15h2.14v5.82c0,0.94,0.23,1.65,0.7,2.15
				c0.47,0.5,1.11,0.75,1.92,0.75c0.81,0,1.45-0.25,1.92-0.75c0.47-0.5,0.71-1.22,0.71-2.15v-5.82H76.49z"/>
			<path class="st0" d="M83.01,32.77c0.64-0.32,1.35-0.48,2.13-0.48c0.92,0,1.76,0.22,2.5,0.66s1.33,1.07,1.76,1.89
				c0.43,0.82,0.65,1.75,0.65,2.8s-0.21,1.99-0.65,2.82c-0.43,0.83-1.02,1.47-1.77,1.93c-0.75,0.46-1.58,0.69-2.49,0.69
				c-0.81,0-1.53-0.16-2.15-0.47c-0.63-0.32-1.12-0.72-1.49-1.21v1.52h-2.16V28.88h2.16v5.14C81.86,33.51,82.37,33.1,83.01,32.77z
				 M87.41,35.77c-0.3-0.52-0.69-0.92-1.18-1.19c-0.49-0.27-1.01-0.41-1.56-0.41c-0.54,0-1.06,0.14-1.55,0.42
				c-0.49,0.28-0.88,0.68-1.18,1.21c-0.3,0.53-0.45,1.16-0.45,1.88c0,0.72,0.15,1.35,0.45,1.89c0.3,0.54,0.69,0.95,1.18,1.22
				c0.49,0.28,1,0.42,1.55,0.42c0.56,0,1.08-0.14,1.56-0.43c0.49-0.28,0.88-0.7,1.18-1.24s0.45-1.18,0.45-1.9S87.7,36.3,87.41,35.77
				z"/>
		</g>
	</g>
</g>
</svg>
