<?xml version="1.0" encoding="utf-8"?>
<!-- Generator: Adobe Illustrator 26.0.1, SVG Export Plug-In . SVG Version: 6.00 Build 0)  -->
<svg version="1.1" id="Layer_1" xmlns="http://www.w3.org/2000/svg" xmlns:xlink="http://www.w3.org/1999/xlink" x="0px" y="0px"
	 viewBox="0 0 44.51 53.32" style="enable-background:new 0 0 44.51 53.32;" xml:space="preserve">
<style type="text/css">
	.st0{fill:#2F4EA0;}
</style>
<g>
	<g>
		<path class="st0" d="M22.12,53.32c-0.57-0.3-14.27-7.56-16.63-15.97C3.83,31.47,4.31,21.8,4.33,21.39l0.04-0.87l4.85-0.61L9.15,22
			L6.4,22.37c-0.08,2.51-0.17,9.84,1.11,14.41c2.12,7.54,15.07,14.41,15.2,14.48L22.12,53.32z"/>
	</g>
	<g>
		<path class="st0" d="M36.86,36.78c-2.12,7.54-15.07,14.41-15.2,14.48l0.46,2.06c0.57-0.3,14.4-7.56,16.77-15.97
			c0.79-2.81,1.09-6.47,1.19-9.59h-2.11C37.87,30.74,37.58,34.2,36.86,36.78z"/>
	</g>
	<path class="st0" d="M10.87,19.73v-6.71c0,0,2.61-2.46,11.17-2.46c8.47,0,11.17,2.46,11.17,2.46v6.71c0,0-6.29-3.18-11.17,0.19
		C22.05,19.91,16.81,16.53,10.87,19.73z"/>
	<polygon class="st0" points="36.67,22.22 34.42,21.8 34.25,19.73 36.49,20.19 	"/>
	<path class="st0" d="M40.86,18.28c0,0.9-0.73,1.63-1.63,1.63s-1.63-0.73-1.63-1.63s0.73-1.63,1.63-1.63
		C40.13,16.64,40.86,17.38,40.86,18.28z"/>
	<polygon class="st0" points="38.28,11.45 38.49,18.88 37.6,26.32 40.86,26.32 39.93,18.78 40.08,10.93 	"/>
	<g>
		<path class="st0" d="M44.4,8.56L22.56,0.14c0,0-0.35-0.14-0.52-0.14c-0.15,0-0.46,0.14-0.46,0.14L0.17,8.65
			c0,0-0.17,0.06-0.17,0.34s0.17,0.4,0.17,0.4l9.13,3.77v-1.48c0,0,3.88-3.02,12.54-3.02c8.67,0,12.83,3.02,12.83,3.02v1.97
			L44.4,9.3c0,0,0.11-0.01,0.11-0.41C44.5,8.64,44.4,8.56,44.4,8.56z"/>
	</g>
	<rect x="18.67" y="21.52" class="st0" width="6.96" height="1.74"/>
	<g>
		<path class="st0" d="M25.66,24.68h-2.59h-0.35h-4.08c0,0,0.69,2.16-4.32,9.01c0,0,4.6,4.3,6.4,12.28
			c0.09,0.39,0.48,0.77,0.91,0.91V35.45C20.69,35.22,20,34.37,20,33.37c0-1.19,0.96-2.15,2.15-2.15s2.16,0.96,2.16,2.15
			c0,1.01-0.69,1.85-1.63,2.09V46.9c0.43-0.14,0.82-0.52,0.91-0.91c1.79-7.98,6.4-12.28,6.4-12.28
			C24.98,26.84,25.66,24.68,25.66,24.68z"/>
	</g>
</g>
</svg>
