<?xml version="1.0" encoding="utf-8"?>
<!-- Generator: Adobe Illustrator 16.0.0, SVG Export Plug-In . SVG Version: 6.00 Build 0)  -->
<!DOCTYPE svg PUBLIC "-//W3C//DTD SVG 1.1//EN" "http://www.w3.org/Graphics/SVG/1.1/DTD/svg11.dtd">
<svg version="1.1" id="Layer_1" xmlns="http://www.w3.org/2000/svg" xmlns:xlink="http://www.w3.org/1999/xlink" x="0px" y="0px"
	 width="141.73px" height="141.73px" viewBox="0 0 141.73 141.73" enable-background="new 0 0 141.73 141.73" xml:space="preserve">
<g>
	<path fill="#2F4EA1" d="M11.728,102.217V91.571h8.507v2.551h-5.089v1.417h4.302v2.442h-4.302v1.648h5.298v2.587H11.728z"/>
	<path fill="#2F4EA1" d="M22.04,102.217V91.571h4.135c1.05,0,1.832,0.047,2.345,0.141c0.513,0.095,0.96,0.25,1.341,0.467
		c0.737,0.434,1.291,1.043,1.662,1.828s0.557,1.751,0.557,2.898c0,1.204-0.23,2.217-0.69,3.039c-0.46,0.821-1.139,1.432-2.034,1.832
		c-0.347,0.158-0.782,0.271-1.305,0.339c-0.522,0.068-1.36,0.102-2.512,0.102H22.04z M25.459,99.521h0.918
		c0.853,0,1.444-0.19,1.774-0.571c0.329-0.381,0.495-1.063,0.495-2.045c0-0.959-0.169-1.639-0.507-2.038
		c-0.337-0.4-0.91-0.601-1.72-0.601h-0.961V99.521z"/>
	<path fill="#2F4EA1" d="M33.618,91.571h3.419v6.563c0,0.606,0.126,1.039,0.379,1.297s0.676,0.387,1.269,0.387
		c0.578,0,0.991-0.126,1.239-0.38c0.248-0.253,0.372-0.688,0.372-1.304v-6.563h3.419v6.83c0,1.334-0.43,2.354-1.29,3.057
		s-2.106,1.055-3.74,1.055c-1.643,0-2.898-0.353-3.766-1.059c-0.867-0.705-1.301-1.724-1.301-3.053V91.571z"/>
	<path fill="#2F4EA1" d="M50.082,98.899h3.324c0.092,0.386,0.258,0.663,0.499,0.831c0.24,0.169,0.6,0.253,1.076,0.253
		c0.4,0,0.715-0.068,0.943-0.206c0.229-0.137,0.344-0.326,0.344-0.567c0-0.385-0.479-0.698-1.438-0.939
		c-0.192-0.048-0.34-0.084-0.44-0.108c-0.786-0.202-1.411-0.387-1.876-0.553s-0.804-0.321-1.016-0.466
		c-0.409-0.294-0.717-0.646-0.921-1.056c-0.205-0.409-0.308-0.877-0.308-1.401c0-1.056,0.397-1.884,1.192-2.486
		s1.889-0.903,3.281-0.903c1.368,0,2.445,0.288,3.23,0.863c0.785,0.576,1.229,1.401,1.33,2.476h-3.245
		c-0.053-0.313-0.191-0.547-0.415-0.701c-0.225-0.154-0.544-0.231-0.958-0.231c-0.366,0-0.639,0.061-0.816,0.181
		c-0.179,0.121-0.268,0.304-0.268,0.55c0,0.352,0.467,0.646,1.402,0.881c0.081,0.024,0.145,0.041,0.188,0.051
		c0.135,0.034,0.34,0.085,0.614,0.152c1.238,0.313,2.048,0.598,2.429,0.853c0.472,0.313,0.816,0.67,1.033,1.069
		c0.217,0.4,0.325,0.872,0.325,1.417c0,1.176-0.411,2.079-1.232,2.71s-1.998,0.946-3.53,0.946c-1.412,0-2.531-0.315-3.357-0.946
		S50.183,100.046,50.082,98.899z"/>
	<path fill="#2F4EA1" d="M61.103,91.571h3.419v6.563c0,0.606,0.126,1.039,0.379,1.297s0.676,0.387,1.269,0.387
		c0.578,0,0.991-0.126,1.239-0.38c0.248-0.253,0.372-0.688,0.372-1.304v-6.563h3.419v6.83c0,1.334-0.43,2.354-1.29,3.057
		s-2.106,1.055-3.74,1.055c-1.643,0-2.898-0.353-3.766-1.059c-0.867-0.705-1.301-1.724-1.301-3.053V91.571z"/>
	<path fill="#2F4EA1" d="M73.194,102.217V91.571h4.379c0.969,0,1.736,0.057,2.302,0.17c0.566,0.113,1.04,0.295,1.421,0.546
		c0.491,0.332,0.857,0.744,1.099,1.235c0.24,0.491,0.361,1.074,0.361,1.749c0,1.19-0.353,2.102-1.056,2.735s-1.718,0.95-3.043,0.95
		h-2.045v3.26H73.194z M76.612,96.355h1.099c0.713,0,1.19-0.079,1.431-0.238c0.241-0.159,0.361-0.44,0.361-0.846
		c0-0.409-0.115-0.693-0.347-0.853s-0.713-0.238-1.445-0.238h-1.099V96.355z"/>
	<path fill="#2F4EA1" d="M84.114,102.217V91.571h4.379c0.969,0,1.736,0.057,2.302,0.17c0.566,0.113,1.04,0.295,1.421,0.546
		c0.491,0.332,0.857,0.744,1.099,1.235c0.24,0.491,0.361,1.074,0.361,1.749c0,1.19-0.353,2.102-1.056,2.735s-1.718,0.95-3.043,0.95
		h-2.045v3.26H84.114z M87.532,96.355h1.099c0.713,0,1.19-0.079,1.431-0.238c0.241-0.159,0.361-0.44,0.361-0.846
		c0-0.409-0.115-0.693-0.347-0.853s-0.713-0.238-1.445-0.238h-1.099V96.355z"/>
	<path fill="#2F4EA1" d="M94.578,96.905c0-1.735,0.495-3.104,1.485-4.105s2.341-1.503,4.051-1.503c1.706,0,3.053,0.501,4.04,1.503
		s1.481,2.37,1.481,4.105c0,1.729-0.494,3.097-1.481,4.101c-0.987,1.005-2.334,1.507-4.04,1.507c-1.71,0-3.061-0.502-4.051-1.507
		C95.073,100.002,94.578,98.635,94.578,96.905z M98.025,96.905c0,1.007,0.169,1.746,0.507,2.219
		c0.337,0.472,0.864,0.708,1.582,0.708c0.713,0,1.236-0.235,1.568-0.705c0.333-0.47,0.499-1.21,0.499-2.222
		c0-1.017-0.166-1.76-0.499-2.229c-0.332-0.471-0.855-0.705-1.568-0.705c-0.718,0-1.245,0.236-1.582,0.708
		C98.194,95.151,98.025,95.894,98.025,96.905z"/>
	<path fill="#2F4EA1" d="M107.198,102.217V91.571h5.095c1.595,0,2.733,0.238,3.415,0.716c0.682,0.477,1.022,1.26,1.022,2.349
		c0,0.65-0.14,1.189-0.419,1.619c-0.279,0.429-0.711,0.769-1.294,1.019c0.593,0.125,1.023,0.372,1.294,0.741
		c0.27,0.368,0.414,0.909,0.434,1.622l0.058,1.481c0,0.01,0.002,0.021,0.007,0.036c0.015,0.424,0.116,0.646,0.304,0.665v0.397
		h-3.447c-0.063-0.255-0.109-0.479-0.141-0.669c-0.031-0.189-0.047-0.338-0.047-0.444v-1.063c0-0.549-0.108-0.936-0.325-1.159
		c-0.217-0.225-0.593-0.336-1.128-0.336h-1.452v3.671H107.198z M110.573,96.146h1.554c0.544,0,0.92-0.074,1.127-0.221
		c0.207-0.147,0.312-0.403,0.312-0.77c0-0.376-0.104-0.638-0.312-0.784c-0.207-0.147-0.611-0.221-1.214-0.221h-1.467V96.146z"/>
	<path fill="#2F4EA1" d="M120.734,102.217v-7.842h-3.064v-2.804h9.547v2.804h-3.064v7.842H120.734z"/>
	<path fill="#2F4EA1" d="M52.369,117.018v-10.646h3.418v3.613h3.188v-3.613h3.418v10.646h-3.418v-4.127h-3.188v4.127H52.369z"/>
	<path fill="#2F4EA1" d="M64.373,106.372h3.419v6.563c0,0.606,0.126,1.039,0.379,1.297s0.676,0.387,1.269,0.387
		c0.578,0,0.991-0.126,1.239-0.38c0.248-0.253,0.372-0.688,0.372-1.304v-6.563h3.42v6.83c0,1.334-0.432,2.354-1.291,3.057
		s-2.106,1.055-3.74,1.055c-1.643,0-2.898-0.353-3.766-1.059c-0.867-0.705-1.301-1.724-1.301-3.053V106.372z"/>
	<path fill="#2F4EA1" d="M76.465,117.018v-10.646h4.365c0.939,0,1.623,0.024,2.052,0.072s0.798,0.128,1.106,0.238
		c0.539,0.202,0.952,0.519,1.239,0.947c0.286,0.429,0.43,0.949,0.43,1.561c0,0.482-0.107,0.902-0.321,1.262
		c-0.215,0.358-0.536,0.653-0.965,0.885c0.563,0.202,0.98,0.506,1.25,0.911c0.27,0.404,0.405,0.93,0.405,1.575
		c0,0.631-0.132,1.18-0.395,1.645s-0.645,0.822-1.146,1.073c-0.337,0.173-0.723,0.296-1.156,0.368s-1.151,0.108-2.153,0.108H76.465z
		 M79.782,110.622h1.409c0.472,0,0.805-0.07,0.997-0.21s0.289-0.376,0.289-0.708c0-0.352-0.104-0.593-0.311-0.723
		c-0.207-0.131-0.687-0.195-1.438-0.195h-0.946V110.622z M79.782,114.531h1.582c0.525,0,0.898-0.077,1.12-0.231
		c0.222-0.153,0.333-0.406,0.333-0.759c0-0.352-0.113-0.602-0.34-0.751s-0.607-0.225-1.142-0.225h-1.554V114.531z"/>
</g>
<g>
	<path fill="#FFFFFF" d="M69.179,56.14c-0.095-0.001-0.189-0.003-0.288-0.003c-3.762,0-9.278,1.348-10.928,2.672
		c-1.204,0.963-4.394,7.729-6.275,12.225l-0.027,0.059c-0.164,0.343-0.433,1.204-0.219,1.671c0.037,0.079,0.128,0.285,0.626,0.419
		c0.073,0.021,0.154,0.031,0.237,0.031c0.938,0,2.38-1.231,3.956-3.374c1.649-2.247,2.976-4.84,3.347-5.65l1.144-2.494l0.67-0.021
		c0.033-0.001,3.924-0.127,5.912-0.367l0.029-0.002l4.833-4.588C71.101,56.352,70.087,56.158,69.179,56.14z"/>
	<path fill="#FFFFFF" d="M62.161,63.816l-0.585,1.277c-0.329,0.719-1.022,2.064-1.9,3.515l5.184-4.924
		C63.647,63.757,62.58,63.8,62.161,63.816z"/>
	<path fill="#FFFFFF" d="M90.146,43.855c0,1.661-1.176,3.007-2.623,3.007c-1.453,0-2.629-1.346-2.629-3.007
		c0-1.227,0.641-2.279,1.561-2.748v-1.199C80.446,41.713,75.2,45.396,70.845,50.87c-0.04,0.05-0.081,0.104-0.122,0.157
		c-0.41,0.556-1.126,1.741-1.409,2.21l-0.294,0.524l-0.162-0.3l-0.017-0.029c-0.011-0.017-1.009-1.707-1.526-2.405
		c-0.041-0.054-0.082-0.107-0.121-0.157c-4.656-5.85-10.325-9.655-16.858-11.308c-2.767-0.701-5.152-0.848-6.668-0.848
		c-0.583,0-1.147,0.021-1.677,0.062l-0.03,29.587c0.305-0.036,0.623-0.054,0.94-0.054c1.674,0,3.358,0.488,5.006,1.451l0.018,0.012
		l-0.011,0.018l-1.081,1.851l-0.019-0.012c-1.636-0.954-3.039-1.154-3.929-1.154c-0.974,0-1.552,0.228-1.578,0.237l-1.512,0.658
		V42.817c-0.484-0.313-1.45-0.831-2.544-0.831c-0.191,0-0.381,0.017-0.563,0.048v31.459c2.014-0.76,4.047-1.147,6.048-1.147
		c3.73,0,6.312,1.358,6.99,1.758c-0.097-0.139-0.184-0.287-0.257-0.448c-0.659-1.451,0.081-3.159,0.233-3.486
		c0.792-1.887,4.844-11.396,6.908-13.049c2.31-1.854,8.685-3.225,12.612-3.146c1.419,0.028,3.005,0.391,4.711,1.077
		c0.004,0.001,0.006,0.002,0.01,0.003l3.454-3.278l4.621,4.365l-2.398,2.253c3.065,2.227,8.488,6.145,10.409,7.381
		c1.044,0.669,2.613,0.81,3.749,0.81c0.918,0,1.738-0.087,2.268-0.162c0-4.271,0-12.68,0.002-19.13c0-4.371,0-7.853,0-8.519
		c-0.531-0.042-1.094-0.062-1.679-0.062c-1.351,0-3.395,0.118-5.782,0.64v1.753C89.504,41.576,90.146,42.628,90.146,43.855z
		 M82.365,55.635l-4.409-4.282c0,0,2.828-3.794,5.525-1.222C86.433,52.944,83.512,54.575,82.365,55.635z"/>
	<polygon fill="#FFFFFF" points="45.72,86.316 52.43,82.65 49.569,79.653 	"/>
	<path fill="#FFFFFF" d="M100.861,41.973c-0.802,0-1.743,0.31-2.651,0.87c0.003,8.462,0.003,17.017,0,25.427v0.02l-0.854,0.104
		c-0.28,0.06-1.771,0.354-3.571,0.354c-2.081,0-3.738-0.388-4.927-1.152c-2.126-1.368-8.288-5.833-10.84-7.69
		c0,0-0.003,0-0.003-0.001l-8.532,8.015l5.563-0.938l0.005,0.021l0.357,2.114l-0.021,0.003l-8.72,1.469l-6.804,1.148
		c-0.5,0.252-2.929,1.557-2.417,3.043l0.044,0.128c0.121,0.138,0.847,0.789,3.611,0.865c0.969,0.026,2.1-0.021,3.352-0.142
		c0.3-0.052,1.893-0.313,3.846-0.313c2.737,0,4.888,0.491,6.394,1.458c2.267,1.46,4.809,2.884,8.711,2.884
		c1.467,0,3.021-0.195,4.752-0.593c1.455-0.332,3.384-0.501,5.729-0.501c0.343,0,0.701,0.005,1.063,0.011
		c1.629,0.038,3.207,0.14,4.359,0.216l0.18,0.01c0.692,0.046,1.346,0.087,1.864,0.104l-0.028-7.629
		c0.031-9.474,0.032-18.859,0.032-29.264C101.196,41.987,101.03,41.973,100.861,41.973z"/>
	<path fill="#2F4EA1" d="M76.778,59.002c-0.221-0.152-2.22-1.493-4.573-2.282c-0.004-0.001-0.007-0.001-0.01-0.002l-4.833,4.588
		l0.037-0.005l-0.047,0.045l-2.458,2.336h-0.008c-0.011,0.001-0.018,0.001-0.026,0.001l-5.184,4.924
		c-0.015,0.022-0.026,0.045-0.04,0.069c-0.243,0.395-0.469,0.754-0.695,1.099c0.084-0.042,0.138-0.066,0.154-0.071l0.125-0.056
		l10.262-1.729l8.532-8.015C77.326,59.403,76.877,59.075,76.778,59.002z"/>
	<path fill="#2F4EA1" d="M77.956,51.353l4.409,4.282c1.146-1.06,4.067-2.691,1.116-5.503C80.784,47.559,77.956,51.353,77.956,51.353
		z"/>
	<path fill="#2F4EA1" d="M69.022,39.002c5.492-0.107,8.639,0.907,10.225,1.684c0.445-0.255,0.893-0.5,1.347-0.733V32.78
		c0,0-3.276-3.351-11.572-3.351c-8.493,0-11.723,3.654-11.723,3.654v6.795c0.515,0.261,1.023,0.539,1.527,0.829
		C60.484,40.009,63.639,39.107,69.022,39.002z"/>
	<path fill="#2F4EA1" d="M88.588,37.143V31.15l3.957-1.722l-23.523-9.667l-23.524,9.744l10.505,4.493l0.119-1.918
		c0,0,2.887-3.787,12.594-3.944c9.442-0.153,13.17,4.414,13.17,4.414l0.153,1.448l4.415-1.92v5.577
		c0.272-0.076,0.547-0.149,0.823-0.218C87.714,37.327,88.149,37.232,88.588,37.143z"/>
	<path fill="#2F4EA1" d="M86.454,39.908v1.199c-0.92,0.469-1.561,1.521-1.561,2.748c0,1.661,1.176,3.007,2.629,3.007
		c1.447,0,2.623-1.346,2.623-3.007c0-1.227-0.642-2.279-1.558-2.748v-1.753c-0.293,0.064-0.587,0.133-0.886,0.208
		C87.283,39.668,86.867,39.783,86.454,39.908z"/>
	<path fill="#2F4EA1" d="M55.369,75.401c-0.125-0.398-0.179-0.812-0.155-1.225c-0.916,0.729-1.802,1.13-2.638,1.196
		c-0.007,0-0.017,0.001-0.025,0.002l-3.446,3.271c0,0-3.386,4.354-4.888,8.362l0.057,0.051l0.053-0.098l0.659,0.574l-0.118,0.053
		l0.067,0.061c1.032-0.322,3.386-1.343,8.393-4.555l5.681-5.335c-1.254-0.204-2.211-0.581-2.842-1.117
		C55.634,76.184,55.438,75.715,55.369,75.401z M45.72,86.316l3.849-6.663l2.861,2.997L45.72,86.316z"/>
	<polygon fill="#2F4EA1" points="43.711,88.109 44.869,87.588 44.275,87.059 	"/>
	<polygon fill="#2F4EA1" points="44.328,86.961 44.275,87.059 44.869,87.588 44.987,87.535 	"/>
	<path fill="#2F4EA1" d="M77.398,51.777l-3.454,3.278c2.355,0.951,4.07,2.17,4.086,2.182l0.016,0.012
		c0.063,0.044,0.662,0.482,1.572,1.144c0.001,0,0.001,0.001,0.003,0.002l2.398-2.253L77.398,51.777z"/>
	<path fill="#2F4EA1" d="M64.894,63.683l2.458-2.336l0.047-0.045l-0.037,0.005l-0.026,0.024l-2.453,2.33l-0.024,0.024
		c0.008,0,0.016,0,0.026-0.001H64.894z"/>
	<path fill="#2F4EA1" d="M76.778,59.002c0.099,0.073,0.548,0.401,1.236,0.902l0.016-0.016c-0.681-0.496-1.138-0.829-1.238-0.904
		c-0.124-0.084-2.148-1.47-4.579-2.284l-0.018,0.018c0.003,0.001,0.006,0.001,0.01,0.002C74.559,57.509,76.558,58.851,76.778,59.002
		z"/>
	<path fill="#2F4EA1" d="M59.095,69.705c-0.016,0.005-0.07,0.03-0.154,0.071c0.226-0.345,0.452-0.705,0.695-1.099
		c0.014-0.024,0.025-0.046,0.04-0.069l-0.061,0.057c-0.233,0.384-0.479,0.775-0.738,1.166c0.131-0.066,0.213-0.102,0.225-0.106
		l0.121-0.054l10.231-1.725l0.028-0.025L59.22,69.649L59.095,69.705z"/>
	<path fill="#2F4EA1" d="M56.936,71.117c-0.327,0.287-0.605,0.585-0.838,0.89l1.417-1.347
		C57.322,70.798,57.128,70.951,56.936,71.117z"/>
	<path fill="#2F4EA1" d="M49.898,74.288l0.023-0.036c-0.015-0.011-0.054-0.036-0.11-0.072
		C49.836,74.216,49.867,74.252,49.898,74.288z"/>
	<path fill="#2F4EA1" d="M103.578,40.498l-0.658-0.308c-0.628-0.292-1.322-0.44-2.067-0.44c-0.837,0-1.706,0.187-2.583,0.557
		c0.004-0.568,0.004-1.13,0.004-1.681l0.001-1.778l-0.943-0.166c-0.011-0.001-1.105-0.199-2.967-0.199
		c-1.893,0-3.842,0.202-5.789,0.601l-0.048,0.01v2.335l0.073-0.016c2.416-0.527,4.471-0.639,5.77-0.639
		c0.563,0,1.107,0.02,1.618,0.058v8.463c-0.002,6.423-0.002,14.79-0.002,19.077c-0.524,0.072-1.317,0.155-2.207,0.155
		c-1.126,0-2.684-0.139-3.716-0.801c-1.914-1.232-7.342-5.152-10.406-7.38l-0.042-0.03l-0.015,0.016
		c-0.915-0.666-1.506-1.096-1.53-1.114l-0.017-0.012c-0.017-0.012-1.726-1.219-4.024-2.158l0.014-0.017l-0.086-0.035
		c-1.712-0.689-3.304-1.053-4.733-1.082c-0.107-0.002-0.218-0.003-0.329-0.003c-3.958,0-10.068,1.353-12.322,3.163
		c-2.064,1.652-6.132,11.18-6.925,13.071c-0.219,0.47-0.882,2.112-0.234,3.537c0.039,0.086,0.083,0.17,0.13,0.25
		c-0.927-0.508-3.382-1.645-6.808-1.645c-1.977,0-3.991,0.377-5.988,1.12V42.087c0.168-0.026,0.336-0.04,0.503-0.04
		c1.06,0,2,0.495,2.483,0.803v28.612l1.597-0.695c0.103-0.039,0.663-0.232,1.553-0.232c0.882,0,2.274,0.199,3.897,1.145l0.072,0.045
		l1.112-1.905l0.04-0.068l-0.068-0.045c-1.656-0.969-3.352-1.459-5.037-1.459c-0.299,0-0.596,0.016-0.879,0.046l0.029-29.463
		c0.51-0.039,1.054-0.058,1.617-0.058c1.512,0,3.892,0.147,6.653,0.847c6.517,1.649,12.178,5.446,16.831,11.292
		c0.037,0.048,0.077,0.099,0.115,0.15c0.449,0.605,1.269,1.973,1.509,2.378l0.243,0.445l0.348-0.618
		c0.244-0.404,0.985-1.634,1.405-2.205l0.03-0.039c0.031-0.04,0.06-0.08,0.091-0.118c4.343-5.458,9.584-9.139,15.58-10.942
		l0.043-0.013v-2.378l-0.077,0.021c-2.019,0.563-3.994,1.338-5.871,2.303c-0.438,0.225-0.879,0.465-1.35,0.735
		c-0.5,0.289-0.988,0.588-1.455,0.89c-2.874,1.863-5.547,4.249-7.944,7.091l-0.006-0.005l-0.037,0.044
		c-0.272,0.322-0.521,0.622-0.755,0.914c-0.234-0.292-0.483-0.592-0.755-0.914l-0.037-0.044l-0.006,0.005
		c-2.398-2.843-5.07-5.229-7.942-7.091c-0.453-0.293-0.919-0.577-1.423-0.869c-0.536-0.309-1.037-0.581-1.53-0.83
		c-2.097-1.063-4.3-1.886-6.55-2.447c-2.378-0.593-4.767-0.894-7.101-0.894c-1.86,0-2.955,0.198-2.966,0.199l-0.946,0.166v3.441
		c-1.576-0.665-3.162-0.708-4.593-0.12l-0.713,0.292v36.481l1.637-0.775c2.211-1.054,4.436-1.588,6.609-1.588
		c0.821,0,1.645,0.077,2.45,0.229c2.196,0.412,3.534,1.271,3.549,1.281l0.069,0.044l1.134-1.709
		c0.401,0.432,0.935,0.739,1.589,0.914c0.272,0.071,0.551,0.107,0.827,0.107c0.052,0,0.104-0.002,0.159-0.006l0.097-0.004
		l0.025-0.025c0.814-0.069,1.679-0.457,2.569-1.15c-0.012,0.396,0.043,0.783,0.16,1.151c0.071,0.32,0.27,0.797,0.811,1.26
		c0.617,0.525,1.544,0.898,2.757,1.109l-0.017,0.016l0.118,0.024l0.016,0.001l0.001,0.002c1.479,0.236,3.397,0.243,5.695,0.021
		l0.093-0.013c0.752-0.138,2.057-0.285,3.466-0.285c1.597,0,3.798,0.191,5.216,1.105c2.435,1.565,5.41,3.234,9.904,3.234
		c1.626,0,3.396-0.218,5.263-0.646c1.577-0.36,3.828-0.504,6.639-0.424c1.357,0.038,2.65,0.121,3.688,0.188l0.181,0.01
		c1.171,0.077,2.048,0.132,2.666,0.132c0.313,0,0.566-0.015,0.776-0.045l0.904-0.136l0.07-0.01L103.578,40.498z M101.289,78.845
		c-0.498-0.019-1.111-0.057-1.8-0.102l-0.181-0.011c-1.068-0.07-2.684-0.177-4.36-0.216c-0.362-0.006-0.722-0.011-1.064-0.011
		c-2.348,0-4.279,0.17-5.741,0.502c-1.733,0.398-3.283,0.592-4.739,0.592c-3.89,0-6.419-1.42-8.678-2.874
		c-1.517-0.975-3.68-1.468-6.427-1.468c-1.948,0-3.555,0.262-3.852,0.313c-1.244,0.12-2.379,0.167-3.345,0.143
		c-2.698-0.076-3.423-0.691-3.559-0.837l-0.04-0.116c-0.49-1.423,1.875-2.711,2.378-2.965l15.515-2.615l0.081-0.014l-0.368-2.176
		l-0.018-0.078l-5.619,0.948l-0.017,0.003l-0.028,0.025l-10.215,1.723l-0.133,0.057c-0.005,0.002-0.015,0.007-0.032,0.014
		c0.199-0.304,0.401-0.626,0.615-0.979l0.055-0.052l0.011-0.013c0.885-1.464,1.578-2.812,1.903-3.521l0.568-1.243
		c0.427-0.017,1.468-0.059,2.664-0.131l0.022-0.001l2.491-2.368l0.159-0.144l-0.208,0.018c-1.889,0.228-5.495,0.353-5.907,0.366
		l-0.707,0.022l-1.16,2.528c-0.368,0.805-1.686,3.386-3.339,5.64c-1.565,2.128-2.989,3.349-3.908,3.349
		c-0.077,0-0.152-0.01-0.222-0.028c-0.466-0.126-0.553-0.313-0.586-0.386c-0.205-0.448,0.058-1.285,0.219-1.622l0.027-0.061
		c1.878-4.49,5.062-11.244,6.257-12.201c1.641-1.317,7.136-2.659,10.89-2.659c0.098,0,0.192,0.001,0.287,0.003
		c0.902,0.018,1.911,0.211,2.999,0.575l0.035,0.013l0.018-0.019c2.254,0.762,4.16,2.015,4.526,2.263
		c0.099,0.074,0.539,0.396,1.199,0.875l0.002,0.058h0.04c2.563,1.866,8.711,6.319,10.827,7.681c1.199,0.771,2.868,1.161,4.96,1.161
		c1.824,0,3.306-0.296,3.579-0.354l0.907-0.11v-0.074c0.003-8.399,0.003-16.942,0-25.394c0.891-0.544,1.81-0.843,2.591-0.843
		c0.147,0,0.292,0.011,0.432,0.031c0,11.349-0.002,20.093-0.032,29.213L101.289,78.845z"/>
	<path fill="#2F4EA1" d="M87.702,39.562c0.299-0.076,0.593-0.144,0.886-0.208v-2.211c-0.438,0.09-0.874,0.184-1.311,0.293
		c-0.276,0.069-0.551,0.143-0.823,0.218v2.253C86.867,39.783,87.283,39.668,87.702,39.562z"/>
	<path fill="#2F4EA1" d="M56.181,76.624c-0.545-0.467-0.728-0.944-0.791-1.227c-0.134-0.422-0.18-0.847-0.153-1.269
		c-0.932,0.749-1.816,1.155-2.662,1.223l-0.024,0.023c0.008-0.001,0.018-0.002,0.025-0.002c0.836-0.066,1.722-0.468,2.638-1.196
		c-0.024,0.413,0.029,0.826,0.155,1.225c0.069,0.313,0.265,0.782,0.799,1.24c0.631,0.536,1.588,0.913,2.842,1.117l0.021-0.019
		C57.767,77.535,56.814,77.164,56.181,76.624z"/>
	<path fill="#2F4EA1" d="M78.046,57.249l-0.016-0.012c-0.016-0.012-1.73-1.23-4.086-2.182l-0.017,0.016
		c2.279,0.92,3.979,2.104,4.091,2.184l0.017,0.012c0.021,0.017,0.631,0.461,1.571,1.144l0.015-0.015
		c-0.002-0.001-0.002-0.002-0.003-0.002C78.708,57.731,78.108,57.293,78.046,57.249z"/>
</g>
</svg>
